<svg id="Camada_1" data-name="Camada 1" xmlns="http://www.w3.org/2000/svg" viewBox="0 0 817.82 758.28"><defs><style>.cls-1{fill:#ce8252;}.cls-2{fill:#b26f48;}.cls-3{fill:#feb183;}.cls-4{fill:#5b3e33;}.cls-5{fill:#d10000;}.cls-6{fill:#ea3d3d;}.cls-7{fill:#cd8252;}.cls-8{fill:#5c3e34;}.cls-9{fill:#5b3e34;}.cls-10{fill:#b47049;}.cls-11{fill:#986957;}.cls-12{fill:#fdac8e;}.cls-13{fill:#fcac8e;}.cls-14{fill:#b57149;}.cls-15{fill:#5d4038;}.cls-16{fill:#eda67c;}.cls-17{fill:#f6a98c;}.cls-18{fill:#b5714b;}.cls-19{fill:#b47148;}.cls-121,.cls-20{fill:#9d6241;}.cls-21{fill:#9d6240;}.cls-22{fill:#7e5032;}.cls-23{fill:#fdb183;}.cls-24{fill:#eea67b;}.cls-25{fill:#7d5036;}.cls-26{fill:#cd8f6a;}.cls-27{fill:#dd9b75;}.cls-28{fill:#ce8f6a;}.cls-29{fill:#dc9b76;}.cls-30{fill:#cf906a;}.cls-31{fill:#eba57c;}.cls-32{fill:#eda57c;}.cls-33{fill:#adb2d0;}.cls-34{fill:#b36f47;}.cls-35{fill:#fca63d;}.cls-36{fill:#de9a74;}.cls-37{fill:#b46f47;}.cls-38{fill:#989dac;}.cls-39{fill:#abb0c0;}.cls-40{fill:#d4d6e4;}.cls-41{fill:#c1c7d9;}.cls-42{fill:#bfc6d8;}.cls-43{fill:#5c6475;}.cls-44{fill:#c4c7d7;}.cls-45{fill:#b0b3c2;}.cls-46{fill:#99664a;}.cls-47{fill:#eea67c;}.cls-48{fill:#675b57;}.cls-49{fill:#9e633d;}.cls-50{fill:#fecdad;}.cls-51{fill:#e3b59d;}.cls-52{fill:#fcc684;}.cls-53{fill:#bbbfe1;}.cls-54{fill:#a6aef7;}.cls-55{fill:#b0b3d2;}.cls-56{fill:#c2f093;}.cls-57{fill:#f9c27e;}.cls-58{fill:#868995;}.cls-59{fill:#83909d;}.cls-60{fill:#df9c75;}.cls-61{fill:#b5704a;}.cls-62{fill:#765144;}.cls-63{fill:#885c50;}.cls-64{fill:#6b493f;}.cls-65{fill:#c48873;}.cls-66{fill:#b37d5e;}.cls-67{fill:#cd8354;}.cls-68{fill:#fbaf82;}.cls-69{fill:#de9b75;}.cls-70{fill:#bcc0e3;}.cls-71{fill:#fbc684;}.cls-72{fill:#f9a53f;}.cls-73{fill:#969fe1;}.cls-74{fill:#99a1de;}.cls-75{fill:#c6d3fa;}.cls-76{fill:#7d7068;}.cls-77{fill:#be904f;}.cls-78{fill:#a67d5b;}.cls-79{fill:#7a6f68;}.cls-80{fill:#9f7a61;}.cls-81{fill:#cfd4e6;}.cls-82{fill:#7486a4;}.cls-83{fill:#fca53d;}.cls-84{fill:#5c6472;}.cls-85{fill:#494d5c;}.cls-86{fill:#e3db8c;}.cls-87{fill:#807878;}.cls-88{fill:#bf8665;}.cls-89{fill:#f6c5a4;}.cls-90{fill:#b47e5c;}.cls-91{fill:#cd906c;}.cls-92{fill:#b97f5d;}.cls-93{fill:#b87d5a;}.cls-94{fill:#996a4c;}.cls-95{fill:#aa7759;}.cls-96{fill:#969fe3;}.cls-97{fill:#969eb7;}.cls-98{fill:#606b76;}.cls-99{fill:#e7d282;}.cls-100{fill:#f0cb7f;}.cls-101{fill:#e4a17a;}.cls-102{fill:#ecaa83;}.cls-103{fill:#c18766;}.cls-104{fill:#9a7665;}.cls-105{fill:#7f6b6a;}.cls-106{fill:#777267;}.cls-107{fill:#f8c272;}.cls-108{fill:#736e6b;}.cls-109{fill:#a9e988;}.cls-110{fill:#e0c676;}.cls-111{fill:#adf191;}.cls-112{fill:#c2d281;}.cls-113{fill:#fabe77;}.cls-114{fill:#a26641;}.cls-115{fill:#a1613b;}.cls-116,.cls-118{fill:none;}.cls-116{stroke:aqua;}.cls-116,.cls-121{stroke-miterlimit:10;}.cls-117{fill:#9b6344;}.cls-119{fill:#928d94;}.cls-120{fill:#a56244;}.cls-121{stroke:#996a52;stroke-width:0.75px;}.cls-122{fill:#dfe8fd;}.cls-123{fill:#e8edfc;}.cls-124{fill:#e8eefd;}</style></defs><title>hero</title><path class="cls-1" d="M617,228.7a406.64,406.64,0,0,1,42.33,24.49c.45,7.73-7,7.81-12.06,11.57C529.4,330.28,222,514.55,217.13,510.89c-8,.82-14.72-6-22.06-9.83-7.58-4.26-22.68-9.81-18.94-19.1,6.46-7.28,17.11-10.42,25.16-16,9.64-4.26,19.47-13.88,26.93-13.36,8.14,14.73,29.83,18.56,39.32,5.14,4-9.85-.84-21.16,3.22-31.09,32.63-21.65,68.92-38.29,101.08-61,6.14-2.32,73.4-31.39,77-28,7.55,7.12-54.42,41.22-46.34,34.53s16.68-11,27-12.2c19.68-.53,35.91-10,51.62-20.43,9.28-6.18,20.59-8.36,29.27-15.57,10.77-9.49,25.1-12.67,36.6-20.86,17-10.5,35.63-21.31,52.17-32.38.7-12.56-17-4.09-23.06-1.59-13.57,5.23-26.64,10.1-39.89,16.19-4.06,1.24-8.13,2.8-11.94-.62-2.51-5.63,2.35-6.72,5.49-8.66,20.7-12.73,41.91-24.59,63-36.59C600.44,235.13,607.33,228.7,617,228.7Z" transform="translate(-4.38 -4.72)"/><path class="cls-1" d="M567.83,200.59c15,7,29,15.56,42.93,24.39,2.74,7-24.54,16.09-27,19.3-32.46,20.69-91.53,48.91-97.19,59-2.28,2.12-5.38,2.52-8.07,3.77-4.51,4-11.69,2.47-15.76,7.44-14.27,5-25.2,13.19-39.75,17.45-10.68,12-23.49,25.83-43,31.54,1.89,3.74-10-2.17-12.4,2.63-15.93,15.63-38.64,22.25-57.11,35-12.91,5.63-38.09,27.83-44.1,17.47-3.09-9.86-2-19.84-.93-29.82,1.71-4.83,7.8-5.66,9.64-10.38,2.83-2.68,7.17-2.9,9.82-5.91a10.94,10.94,0,0,1,2.82-.67c37.65-22.75,78.1-43.13,115.08-67.49,1-15.17,13.14-20,24.15-26.45,26.91-15.68,54.34-30.49,81-46.7,4.81-2.93,9.69-8.15,16.57-4.24,2.26,2.77,1.29,6,1.45,9.12.76,6-3.12,9.1-7.66,11.79-18.52,11-37.08,21.85-55.95,32-.85,1.55-.21,2,1.42,1.66C491.49,269,528,240,537.53,245.28c3.62.23,6.59,2.82,10.29,2.77,7.37-2.9,10.9-7.82,8.61-15.83-.93-2.12-3-2.94-4.76-4.15-1.44-1.07-3.24-1.46-4.73-2.42-2-2.66-5.48-3.86-7-7a7,7,0,0,1-.15-3C547.43,207.52,556.34,201.69,567.83,200.59Z" transform="translate(-4.38 -4.72)"/><path class="cls-2" d="M223.48,453.73c-57.07,39.71-66,21.13-13.51,52.66,6,3,8.18,1.69,16.7-3.6,154.22-90.06,287.44-163,432.62-249.6l6,2.4c3.24,10.43-40.25,28.26-43.74,32.1C498.29,358.38,375.74,429.62,252.5,499.75c-8.66,4.84-18,9.17-25.29,16.7-2.47,7.21-7,16.67-13.39,14.59-13.49-5.41-23.93-13.83-35.84-19.87-48.45-28.34-97.95-54-144.8-84.56-1.7-.73-3.25-1.75-4.9-2.58-1.89-1.09-3.46-2.64-5.36-3.73a5.93,5.93,0,0,1-2.64-2.67c-.88-2-.11-4.22-.86-6.24-6-20.43,25.77-27.28,37.32-36.29,37.47-21.93,74.77-41.86,111.32-65a238.53,238.53,0,0,0,33.62-18.74c13.82-16.79,36.73-25,55.34-35.84a7.77,7.77,0,0,1,7.42,4.81C268,271,243.18,278,238.52,282.57,176,319,113.82,354.19,51.41,390.58c-4.48,3.14-15.5,6.28-12.06,11.27A120.6,120.6,0,0,0,66.68,417.4c17.92-2.8,31.62-19.58,50.26-23.47a7.26,7.26,0,0,1,6.32,3.67c5.36,12.1-35.44,24.32-36.22,30.29,39.57,40.36,52.91-7.55,65.68,5.8,1.38,2.31,1.24,4.78.75,7.27-3.9,6.58-14.55,9.52-17.11,15.33,4.3,6.63,27.14,18.46,31.24,17.1,18-3.93,50.75-36,57.55-23.29C225.38,451.67,225.16,453,223.48,453.73Z" transform="translate(-4.38 -4.72)"/><path class="cls-1" d="M517,172.4,562.28,198c1.27,4.76-2.74,6.2-5.56,7.69-8.4,4.44-16.29,9.72-24.64,14.22-3.9,1.38-6.85,4.07-9.68,6.93-24.92,9.77-46.21,26.38-70.2,38.48-20.41,9.84-42.91,29.83-53.51,26.86-3-1.28-6-1.63-9,.3-36,19.88-71.21,42.88-108.21,61.09a25.93,25.93,0,0,0-7.38,4.56c-6.91,4.5-15,7-21.35,12.46A32.3,32.3,0,0,1,247,373a9.78,9.78,0,0,1-3.28-.14c-3.44-1.86-7.35-2.83-10.43-5.37-3.16-3.25-2.17-7.34-2.31-11.19-.5-5.53,3-8.06,7.32-10.5C301,310.68,363.08,274.45,425.44,238.7c21.62-12.4,43.46-24.42,64.9-37.12,3.38-2,7.69-3.27,4.73-8.6-1.81-2.61-3.42-5.27-2.4-8.64C500.1,179,506.77,172.13,517,172.4Z" transform="translate(-4.38 -4.72)"/><path class="cls-3" d="M818.15,465.06c.72,1,1.43,1.95,2.15,2.93,1.11,2.81-.65,4.66-2.6,5.74-14.42,8-27.73,18-43.53,23.46-18.74-6.52-34.38-19.15-52-28.47-20-12.17-64-33.36-63.43-40.46-.22-16.45-.44-32.89.11-49.31a7.15,7.15,0,0,1,1.24-3c9.06-6.32,16.18,3.75,24.32,7.17,13.24,7.75,26,15,39.31,22.55C754.09,424.15,807.78,450.47,818.15,465.06Z" transform="translate(-4.38 -4.72)"/><path class="cls-4" d="M226.12,83.21,232.21,81c17,3.18,27.33,41.21,31.49,49.72,15.55,6.87,36-15.83,49.17-.26,6.87,18.88-1.67,39.05,2.59,58.52-3,8.64,1,17,.92,25.59-.81,5.31-2.25,10.5-2.95,15.82-.16,1.65-.2,3.74-1.58,4.55-11.23,6.6-21.13,15.91-34.87,17.52-4.82-.5-7.31-4.23-10-7.52-10.95-13.63-20.32-28.37-29.94-42.94-1.7-7.49,1.49-14.42,3.41-21.16,9-31.4,5.66-60.62-13.46-87.52C224.68,90,223.63,86.81,226.12,83.21Z" transform="translate(-4.38 -4.72)"/><path class="cls-5" d="M204.4,213.2c-11.51-35.89-22.15-86.1,1.74-112.26,16-10,23.5,3.84,27.75,16.76,1.43,9.38.18,19,1.17,28.58.21,15.54,4,29.61,3.56,45.68-1.37,8.4-12.56,8.14-19.11,12.6C213.82,207,211.41,215.17,204.4,213.2Z" transform="translate(-4.38 -4.72)"/><path class="cls-6" d="M204.4,213.2c17.8-23.94,30.55-13.32,30.87-22.26-11.05-58,5.82-90.63-29.13-90a59.19,59.19,0,0,1,20-17.73c34.64,50.13,24.86,69.43,14,117.39-4.42,13.65-26.36,7.05-22.29,30.12-3.66,6.11-7.85,10.95-15.84,6.56C204,229.37,208.16,221.68,204.4,213.2Z" transform="translate(-4.38 -4.72)"/><path class="cls-7" d="M469.86,143.46A505.73,505.73,0,0,1,516,170c-6,6.82-14.79,9.18-21.85,14.29C481.5,186.94,470.92,170.37,459,171c-12.3-.31-23.62,11.3-34.3,16.68-19.49,10.58-48.77,30.09-57.17,30.08-5-.2-8.15-2.46-8.78-7.65.11-3.49,2.48-5.08,5.2-6.69,32.94-19.53,66.27-38.37,99.28-57.79C465.23,144.44,467.61,144.06,469.86,143.46Z" transform="translate(-4.38 -4.72)"/><path class="cls-8" d="M202,237.28c5.4-1.56,9.93-4.67,14.27-8.1,4.06-2.11,7.68-.35,11.27,2.48,22.22,18.18,46.57,25.46,17.15,38.77-11.71,6.64-22.79,12.86-34.53,19.48-9.82-11.22-6.3-26.57-10.4-40C197.43,245.18,198.47,241,202,237.28Z" transform="translate(-4.38 -4.72)"/><path class="cls-6" d="M258.51,135.11C255.2,114.4,244,97.54,232.21,81c4.8-4.74,13.67-4.14,15.94-12.18,5.51,12.84,18.13,38.25,28.2,35.16,3.59.45,5.57-2.73,8.48-3.8,10.14-1.65,4.24-9.58,5.71-14.64.86-2,1-4.24,2.66-5.88a5,5,0,0,1,4.86-1.29c7.83,10.92,8,36.22,5.91,46.44C288,130.45,264.8,138.91,258.51,135.11Z" transform="translate(-4.38 -4.72)"/><path class="cls-9" d="M247.67,20.94c18.42-33.52,65.18-8.51,69,16-.3,4.17-9.28,4.63-14.21,7.9-6.18,7.57-10.71,8.28-21.61,3.42-2.15-.82-4.72-1.87-6.3-4.72C264.07,27.79,248.19,29.9,247.67,20.94Z" transform="translate(-4.38 -4.72)"/><path class="cls-10" d="M355.19,211.52l-2.91-5.91q52.16-29.81,104.36-59.56c4-2.27,7.85-6.81,13.22-2.51-5.75,8.28-15.47,10.62-23.53,15.35C416.07,176.63,385.59,194,355.19,211.52Z" transform="translate(-4.38 -4.72)"/><path class="cls-11" d="M247.67,20.94c13.37,4.32,25.92,9.77,32.71,23.32,7.59,12,2.63,12.82-5.67,21.05-5.23,8.28,5.76,14.43,13.15,12.83a6.73,6.73,0,0,1,6.59,3.48L294.21,87c-4.14,16.53-10.3,8.69-20.35,9.54-12.7-.9-17.88-10.12-22.3-20.17,1.57-6,1.21-12.62,5.3-18.68-3.15,1.94-5.55,3.84-8.79,3.06C243.71,47.5,241.81,34.26,247.67,20.94Z" transform="translate(-4.38 -4.72)"/><path class="cls-12" d="M358.66,211.36c1.45,3.56,3.53,6.29,7.9,6,6.13,13.25,2.85,21.31-9.71,23.85-3.48,0-5-2.56-6.6-5.08-3-5.39-9-2.63-13.2-4.9a6.61,6.61,0,0,1-3.15-4.44c-1.13-3.48,3.34-6.38,1-10-6-6.78-17.73-10.62-19.33-21-1.69-11.29,11.57-34.21,21.63-27.88,6.44,12.49,10.63,26.09,18.71,37.76C359,206.55,358.73,209,358.66,211.36Z" transform="translate(-4.38 -4.72)"/><path class="cls-5" d="M310.76,189.26c-.88-19.82,1.71-40.3-2.21-60a4,4,0,0,1-1.68-3.39,6.77,6.77,0,0,1,.82-2.59c8.39-7.35,1.12-30.9,14.61-26.19q5.24,29,10.48,58c4,8.63-7.27,12.5-10.63,19.18C317.59,179.28,318.25,190.4,310.76,189.26Z" transform="translate(-4.38 -4.72)"/><path class="cls-13" d="M294.45,81.62c-21.45,5.77-30.92-5.34-25.95-21.7,13.05-2.62,11.88-5.39,11.88-15.66,7.29,3.12,14.64,4.11,22.1.54a93.61,93.61,0,0,1-3.32,25.47c1.78,3.58.94,6.4-2.49,8.45Z" transform="translate(-4.38 -4.72)"/><path class="cls-14" d="M485.88,299.89c8.11-10.41,20.88-13.52,31.5-19.93,30.93-18.66,62.23-36.72,93.39-55L617,228.7c-30.4,18.84-63.65,34.48-92.77,55.37-.5,9.81-10,7.67-15,11.37C501.68,298.21,495.1,306,485.88,299.89Z" transform="translate(-4.38 -4.72)"/><path class="cls-6" d="M322.3,97.05c-7.61,5.65-6.79,34.9-13.49,28.05-6.55-5-1.84-12.58-4.17-19-1.26-13.51-6.09-30.49-.21-33.25C318.16,77,321.17,81.06,322.3,97.05Z" transform="translate(-4.38 -4.72)"/><path class="cls-5" d="M254.16,75.15c4.71,8,10.3,15,19.57,17.95,5.23,3.53,11.4,6.79,3.93,13.9-3.21,6-6.61,6.74-10.87.79-8.53-11.92-19.62-22.57-18.64-39,.27-.69.54-1.38.8-2.07C254.61,67.1,254,71.39,254.16,75.15Z" transform="translate(-4.38 -4.72)"/><path class="cls-6" d="M310.76,189.26c2.52-14.52,12.65-24.14,22-34.26,2.43,4,7.56,7.09,4.42,13-10.72,6.79-17.57,16.15-19.2,29-2.52,6,1.72,18.36-7.16,18.35Q310.8,202.28,310.76,189.26Z" transform="translate(-4.38 -4.72)"/><path class="cls-15" d="M304.43,72.88c1.46,17.41,4.52,34.68,4.38,52.22l-.44-.14c-2.23,1.88-4.44,1.88-6.62-.08a155.24,155.24,0,0,0-5.08-46.16l2.49-8.45Z" transform="translate(-4.38 -4.72)"/><path class="cls-16" d="M773.9,494.45A381.74,381.74,0,0,0,820.3,468c.63,1.36,1.26,2.72,1.9,4.07q-1,2.12-2,4.24c-7.44,11-19.74,15-30.58,21-4.53,2.5-8.81,7.89-15.3,4.46C772.05,499.45,771.46,497,773.9,494.45Z" transform="translate(-4.38 -4.72)"/><path class="cls-6" d="M199.79,250c11.69,10.48,4.94,26.81,10.39,40L204,293.44c.54-4.14.39-7.37-2.27-11.68C195.79,272.07,197.88,260.76,199.79,250Z" transform="translate(-4.38 -4.72)"/><path class="cls-17" d="M254.16,75.15q-2.61-4.22-5.21-8.45c-.29-2-.59-4-.88-6,4.57-3.55,5.56-10,8.35-14.85C270.91,40.12,255.46,71.75,254.16,75.15Z" transform="translate(-4.38 -4.72)"/><path class="cls-18" d="M531.94,215.28c9.34-7.45,21.31-10.58,30.35-18.53l6.11,3.84-26.47,16.24C538,220.18,534.46,221.07,531.94,215.28Z" transform="translate(-4.38 -4.72)"/><path class="cls-19" d="M490.87,184.42A53.58,53.58,0,0,1,515.56,170l4.14,2.76c-8.05,5-15.41,11.41-24.6,14.24C492.61,188.1,490.76,188,490.87,184.42Z" transform="translate(-4.38 -4.72)"/><path class="cls-20" d="M211.81,759.25a28,28,0,0,0,3.07,1.29l0,0,6,2.48.14-.11a3,3,0,0,1,1.08-.83,2.83,2.83,0,0,1,1.07-.86l.13-.1q.1-109.4.22-218.79c0-5.23-.62-10.56,2-15.47,4.25-5.31,6.72-10.6,0-15.88-3.49,2.58-.2,16.81-5.42,13.18-1.94-2.32-2.54-1.91-5.13-2-8.75-2.84-5.21-1.23-8.74-3.21C171,499.12,85.86,451.34,35.67,424.15a5,5,0,0,0-1.31,3.27c-.41,72.49,2.27,145.64-1,218-.33,1-.72,2-1.13,3-1.22,2.65-4.14,4.78-2.53,8.22,5.45,2.16,9.18,8.31,16.31,6.57,2.73-6.23,2.66-12.8,2.66-19.38q0-80.35,0-160.7c0-3.29,0-6.57.14-9.86.31-5.87,3.22-8.4,9.35-6.81,2.77.31,5.43,1.35,8.27,1.17,25.39,11.79,50,27.48,75,40.72,58.81,34.19,61.46,25,60.36,57.13.21,37.44-.57,137.3-.2,178.54L201,754.78Z" transform="translate(-4.38 -4.72)"/><path class="cls-21" d="M615,402.29" transform="translate(-4.38 -4.72)"/><path class="cls-22" d="M48.18,667.19c-4.79-11.74-.87-26.06-2.09-39,1.71-201.92-7.78-170.13,17.6-162.44a4.1,4.1,0,0,1,.8,2.56c-1.88,5-1.54,10.36-2.79,15.48-2,58.1-1.4,117.11.22,175.37Z" transform="translate(-4.38 -4.72)"/><path class="cls-23" d="M511.89,575.27c95.59-53.53,95.79-64.6,112-43.18-13,15-34.53,21.4-51.72,30.14C554,569.56,541,579,522.85,588.1,516.39,580.67,517.33,583.45,511.89,575.27Z" transform="translate(-4.38 -4.72)"/><path class="cls-24" d="M521.31,586.61c58.43-28,80.22-46.68,102.57-54.22.78,25.63,9.65,11.85-16.43,27.4-29.35,14.91-54.84,33.75-84.1,46.81C521.45,598.62,521.45,593.83,521.31,586.61Z" transform="translate(-4.38 -4.72)"/><path class="cls-25" d="M63.64,466.29c0-.59,0-1.19,0-1.78l4.18,3.94c-2,148.23,5,191.46-6,190.82-3.85-3.48-4.25-8-4.24-12.83q.09-78.75,0-157.48c0-3.66-.37-7.41,2-10.63,2.82,54.45.13,110.88,1,165.73C62.07,570.44,57.32,472.18,63.64,466.29Z" transform="translate(-4.38 -4.72)"/><path class="cls-26" d="M618.51,398q-.09,17.06-.17,34.1c-12.21-19-93-49.09-84.05-58.68l2.17-1.53c7.63.88,13.37,5.8,19.67,9.42,15.5,8.92,31.62,16.77,41.2,23.66C579.61,392,544.28,378,540.16,369.71l6.54-3.63c8.39-3.45,15.29-.61,22.85,3.68C585.93,379.06,602,388.82,618.51,398Z" transform="translate(-4.38 -4.72)"/><path class="cls-27" d="M771.8,522.81,661.88,459.75c-9.19-23.63,49.39,18.75,53.62,19.59,20.11,13.05,42.85,22,61.31,36.61C777.5,520,775.05,521.68,771.8,522.81Z" transform="translate(-4.38 -4.72)"/><path class="cls-28" d="M660,379.78c0-1.2.93-2.39,1.43-3.58q.23,26.87.46,53.73c.86,2.8,3,4.87,4.21,7.51.41,1.9-.17,3.78-.14,5.67-.44,4.07,2.29,5.63,5.31,7.44,31.79,19.07,64.94,35.82,96.15,55.9A11.33,11.33,0,0,0,774.1,508c18.6-4.75,38-25.7,46-21.28.2,1.12.39,2.23.59,3.34-3.79,7.53-36.12,26.6-44.69,26.36-34.05-15.05-64.82-37-97.91-54.39-5.54-1.84-15.24-12.91-16.17-2.3a2.35,2.35,0,0,1-1,.46" transform="translate(-4.38 -4.72)"/><path class="cls-29" d="M534.29,373.37c15,14,35,21.91,52.44,33.1,9.59,6.78,32,13.41,30.07,23.58-31-15.81-60.69-34.31-90.72-52.18A18.34,18.34,0,0,1,534.29,373.37Z" transform="translate(-4.38 -4.72)"/><path class="cls-30" d="M661.82,442.54l1.77-4.3c6-3.66,19.52,9.34,24.22,10.53,29.69,17.5,59.61,33.42,88.18,51.78l44.22-24.25c.43,1.33.85,2.66,1.28,4-9.08,9.93-21.82,14.21-32.88,21-4.63,2.87-8.78,7-14.63,7.73C721,479.67,664.82,449.37,661.82,442.54Z" transform="translate(-4.38 -4.72)"/><path class="cls-31" d="M776,516.44l44.69-26.36c5.86,9.9-14.67,14.23-19.5,18.76-10.23,4.66-25.92,17.27-29.35,14Z" transform="translate(-4.38 -4.72)"/><path class="cls-32" d="M774,506.42c15.83-8.74,30.83-19,47.54-26.12a6.81,6.81,0,0,1-1.43,6.44c-15.46,8.37-29.62,19.08-46.08,25.66C772.34,510.41,772.22,508.42,774,506.42Z" transform="translate(-4.38 -4.72)"/><path class="cls-33" d="M225.55,454.38l0-4.16c-2.18-2.62-3.32-5.44-1.66-8.77,5.95-8.91,21.07,12.56,19.72-1.94,9.62-5.66,8.15-15.48,9.1-24.37-1.52-9.85-18.83.42-29.36-17-.28-1-.56-2-.86-3-1.16-4.42.95-8.71.41-13.1a7.07,7.07,0,0,1,2.19-4.44,6.29,6.29,0,0,1,6.35-.12c26.75,17,33.17-7.54,42.41.87,2.26,3.58,1.09,6.7-1.3,9.64q0,16.1.08,32.17c2.22,2.64,1.33,5.25-.05,7.86-.9,11.41,2.12,30.22-5.81,38.2C255.73,476.69,226.41,473.15,225.55,454.38Z" transform="translate(-4.38 -4.72)"/><path class="cls-34" d="M272.62,428.05c0-3.95.05-7.9.08-11.85C308,401.8,339,380.11,372.64,362.82c16.49-8.48,33.38-16.53,47.84-28.25,3.56-2.16,4.54,1.15,6.34,2.75v.18c-5.56,13.09-19.55,15.92-30.4,22.08C355.44,382.85,313.93,405.3,272.62,428.05Z" transform="translate(-4.38 -4.72)"/><path class="cls-35" d="M402.77,311.75C379.12,328.63,352.93,341.22,328,356c-12.22,7.22-23.66,16.09-37.67,20-3.12-3.37-1.61-7.48-1.84-11.32,3-4.61,6.83-8.8,8.24-14.37,12-12,28-17.6,42.05-26.24,18.35-11.26,36.69-22.58,56.19-31.85,3.44-.53,7-1.67,9.58,2C406,300.22,407.31,306.28,402.77,311.75Z" transform="translate(-4.38 -4.72)"/><path class="cls-36" d="M456.91,279.63q28.43-16.59,56.86-33.2c3.13-1.83,6.66-3.28,7.8-7.26,10.15-12.38,27.15,3,13.83,11.88-9.19-1-15.89,7.11-24.22,10.82-18.76,9.73-44.34,28.55-48.46,25.92C459,286.37,455.25,284.91,456.91,279.63Z" transform="translate(-4.38 -4.72)"/><path class="cls-37" d="M407.28,285.74c13.91-2.44,24.87-12.46,36.79-19.13,32.69-17,70-44.11,76.61-41.23l1.09.79c.42,1.39.39,2.62-1.22,3.25-131.84,76.93-105.61,55.18-114.11,82C404.63,302.81,402.25,294.16,407.28,285.74Z" transform="translate(-4.38 -4.72)"/><path class="cls-38" d="M557.44,231.73c4.4,14.22,2.49,17.84-12.26,23.28-4.38-4.16-4.82-9.11-2.92-14.53C545.63,234.63,550.9,232.08,557.44,231.73Z" transform="translate(-4.38 -4.72)"/><path class="cls-39" d="M545.37,239.71q-.09,7.65-.19,15.31c-3.9.26-6.32-3.14-9.77-4,2.93-11.76,2.38-12.68-8-13.34-3.66-2.4-3.41-3.11,2.25-6.6,2.12-.64,4.1,0,6.07.65,1,.25,1.93.5,2.9.73C541.62,234.2,544.39,236.12,545.37,239.71Z" transform="translate(-4.38 -4.72)"/><path class="cls-40" d="M537.54,235.34c-.68-.15-1.36-.27-2-.36-2.46-9.77,1-12.68,13.22-11.14l4.7,2.64C551.48,236.27,548.79,237.78,537.54,235.34Z" transform="translate(-4.38 -4.72)"/><path class="cls-41" d="M529,218c3.11,1.79,6.58,1.3,9.94,1.54.18.54.38,1.08.6,1.61l-.39,1.34c-3.93,3.22-7.68,6.71-12.48,8.7-4.11.25-4.17-3.26-5.34-5.75h-.65C520.5,219.6,524.07,218,529,218Z" transform="translate(-4.38 -4.72)"/><path class="cls-42" d="M537.21,235.47a16.7,16.7,0,0,0,14-7.72,11.34,11.34,0,0,1,6.25,4c-3.08,4.09-8.06,5.3-12.07,8A15.53,15.53,0,0,1,537.21,235.47Z" transform="translate(-4.38 -4.72)"/><path class="cls-43" d="M407.28,285.74l-.84,25.71-3.67.3-.51-18.08a5.58,5.58,0,0,1-1-5.87,4.42,4.42,0,0,1,5.37-2.07Z" transform="translate(-4.38 -4.72)"/><path class="cls-35" d="M290.79,365.9c9.3,3.77-3.68,6.55-.45,10.06l-2.16-.47a18.64,18.64,0,0,1-10.48,3.66,4.48,4.48,0,0,1-2.91-3.11,6.2,6.2,0,0,1,1.83-5.51c2.9-1.67,6.46-2.2,8.78-4.94C287.25,364.69,289.07,364.43,290.79,365.9Z" transform="translate(-4.38 -4.72)"/><path class="cls-44" d="M547.05,225.45c-5,1.89-11.31,2.23-11.65,9.71l-4.06-1.85c-1.74-.68-3.21-1.57-2.85-3.83,2.28-4.14,6.49-5.74,10.33-7.83l.72-.55Z" transform="translate(-4.38 -4.72)"/><path class="cls-45" d="M529,229.67l2.32,3.64c-1.47,1.32-4.73,1.06-3.94,4.41-1.63,1.72-3.68,1.78-5.83,1.45l-1-9.75.78-4c1.71,1.69,3.2,3.69,5.82,4.08C527.86,228.76,528.48,228.83,529,229.67Z" transform="translate(-4.38 -4.72)"/><path class="cls-46" d="M458.69,279.23c7.26,5.57,11.05,11.18.79,11.75C453.78,288.72,451.85,280.61,458.69,279.23Z" transform="translate(-4.38 -4.72)"/><path class="cls-35" d="M276.3,376l1.44,2.51c1.39,0,2.75.11,2.42,2.12.11,5.16-3.62,6.38-7.57,7.36l-.78-10a2.7,2.7,0,0,1,.61-2.63A3,3,0,0,1,276.3,376Z" transform="translate(-4.38 -4.72)"/><path class="cls-35" d="M280.16,380.66l-2.41-2.12c3.38-1.35,6.11-4.92,10.43-3.05C287.41,380.18,284.38,381.35,280.16,380.66Z" transform="translate(-4.38 -4.72)"/><path class="cls-1" d="M120,397.9c-60.59,33.85-36.43,32.31-83.81,7-6.28-4.2-1.22-6.65,4.57-10,71.08-40.49,139.67-80.95,210.2-121.1,5-2.58,9.39-5.17,13.21-9.66,6.81-2.67,8.87,1.43,10,6.95-.88,6.16-6,8.51-10.52,11.12-51.44,29.46-102.88,58.93-153.94,89-3.12,1.84-7,2.29-9.41,5.32C97.47,389.05,121.23,385.89,120,397.9Z" transform="translate(-4.38 -4.72)"/><path class="cls-1" d="M226.34,378l-.66,4.63c-2.8,9-10.83,12.06-18.07,15.92-15.16,8.08-29.23,18.1-44.87,25.31a21.14,21.14,0,0,0-3.85,3.47c-2,2-1.56,6-5.19,6.77-23.85,12.49-29.55,24.59-46.92,11.29-7.46-4.9-19.67-9.05-25-15.5-1.35-6.35,42.32-24.57,44-29.48,3-3.19,5.46-.28,7.74.92,4,2.1,7.89,2.81,12.16,1.35,68.24-36.76,97.52-60.92,102-52.86,1.84,3.13,1.47,6.09-.66,8.91-3.62,2.37-8.16,3.39-10.81,7.23C229.74,367.45,231.63,375.62,226.34,378Z" transform="translate(-4.38 -4.72)"/><path class="cls-1" d="M226.29,440.22c-.23,3.33-.47,6.67-.7,10-24.19,8.32-44.16,30-58.9,28.35-7.67-.54-13.94-7-20.91-10.69-5.7-4.25-24.35-9.36-11.58-15.58,6.21-2.93,12.29-8.41,19.49-10,2.22.12,3.21,2,4.73,3.16a15.44,15.44,0,0,0,2,.87c2.08.73,3.67-.66,5.44-1.27,9.06-7.4,20.92-10.34,29.43-18.61a11.53,11.53,0,0,1,2-2.07c14.45-2.43,25.76-15.75,31.76-7.35,2.13,5,2,10.23,1.71,15.5C229.43,435.16,229.25,438.5,226.29,440.22Z" transform="translate(-4.38 -4.72)"/><path class="cls-12" d="M272.31,271.51a17.1,17.1,0,0,0-8.16-7.46c-15.61-11.08-32.1-23.43-47.85-34.87-15.66-14.57,13.09-24.89,23.86-28.57,10.05,8.3,14.13,21,22.34,30.63,5,5.85,9.41,12.14,14.1,18.24a8.87,8.87,0,0,0,7.46,2.27c5.71.67,10.9,4.59,17,2.71a9.52,9.52,0,0,1,3.76,4.46c1.66,11.75,2.17,22.5-12.22,24.31a14.07,14.07,0,0,1-8.85.71C278.56,281.09,273.78,277.82,272.31,271.51Z" transform="translate(-4.38 -4.72)"/><path class="cls-47" d="M146,406.25c-8.75,4.9-13.61-3.67-20.31-5.85L120,397.9c-9.24-7.28-31.87-14.53-24.5-24.11,18.34,4.17,33.33,14.5,47.79,25.85A12.12,12.12,0,0,1,146,406.25Z" transform="translate(-4.38 -4.72)"/><path class="cls-48" d="M156.1,449.76c-2.69-1.88-1.82-4.92-2.4-7.48v-8.19c.8-3.37-.9-7.26,2.15-10.15,2.26-.5,3,.95,3.53,2.71C157.71,434.27,161.67,442.69,156.1,449.76Z" transform="translate(-4.38 -4.72)"/><path class="cls-49" d="M37.58,426.14c-4.34,1.65-3.55-1.82-4-4l4,2C37.58,424.81,37.58,425.48,37.58,426.14Z" transform="translate(-4.38 -4.72)"/><path class="cls-50" d="M141.85,402.08c-15.29-9.7-32.4-16.41-46.36-28.29L272.31,271.51c5.74,1.34,10,4.54,12.21,10.11,5.48,2.32,4.05,10.87,10.85,12,3.76.95,6.37-1.55,9.08-3.27,12-7.65,24.72-14.17,36.33-22.47,6.21-2.85,14.89-2,16.71-11.29,2-5.88-4.81-11.18-1.12-17.15,15-6.27,3.8-15.12,10.19-22.06,112.63-63.56,74.6-56.45,124.42-32l3.79,2.22,6.13,4.32c2.51,7.41-4,7.74-8.14,10.64C394.39,259.87,295.83,316,197.28,373,182.88,380,147.71,405.1,141.85,402.08Z" transform="translate(-4.38 -4.72)"/><path class="cls-51" d="M141.85,402.08c112.4-66.2,226-130.82,338.81-196.48,6.57-5,15.84-6.49,20.24-13.73,5.52,7.95-1.22,10.56-6.18,13.45-26.79,15.58-53.69,31-80.53,46.46q-77.51,44.71-155,89.47c-2.86,1.65-6.12,2.87-7.21,6.49a7.57,7.57,0,0,1-6.63,2.35c-33,18.61-66.09,37.67-99.37,56.16A5.51,5.51,0,0,1,141.85,402.08Z" transform="translate(-4.38 -4.72)"/><path class="cls-52" d="M394.78,295.88c-31.67,18.72-63.31,38.13-95.71,56-2,.06-3.38-1.08-4.61-2.47a5.62,5.62,0,0,1-.95-5.15q48.5-30,98.73-57C399.33,288.3,399.72,291.3,394.78,295.88Z" transform="translate(-4.38 -4.72)"/><path class="cls-53" d="M226.34,378c-.9-6.66.57-12.05,7.68-14.44a5,5,0,0,1,2.34,1.51c4.2,17.48,24.13,13.25,23.39,4.21-.06-2.87-.63-5.91,2.62-7.63a8.52,8.52,0,0,1,1.74.27c3.31,0,6.45.41,8.52,3.47,1.72,3.51,3.32,7,0,10.53l-.83,2.1C256.06,389.38,241.31,389.37,226.34,378Z" transform="translate(-4.38 -4.72)"/><path class="cls-54" d="M262.37,361.64q.88,4.16,1.75,8.3c-7.62,8.72-26.86,10.83-29.67-3.73-.14-.89-.28-1.77-.43-2.66,2.5-3.5,5.66-5.91,10.16-6.05a14.54,14.54,0,0,1,4.44,2.16,4.73,4.73,0,0,0,1.86-.22,11.88,11.88,0,0,1,3.81-1.95A12.17,12.17,0,0,1,262.37,361.64Z" transform="translate(-4.38 -4.72)"/><path class="cls-55" d="M254.29,357.49c1.21,3.44,3,6.89-.09,10.29a12.34,12.34,0,0,0-9.93.06c-3.15-3.42-.15-6.89-.09-10.34,1.18-2.34,2-4.75,1.19-7.41,1.43-3,3.63-3.79,6.63-2.35C252.75,351,252.05,354.59,254.29,357.49Z" transform="translate(-4.38 -4.72)"/><path class="cls-56" d="M268.22,359.22c6.2-5,13.44-8.19,20.4-11.88,2.37-.84,4-.27,4.69,2.34-.93,5.5-5.65,7.1-9.69,9.39-3.87,1.71-7.5,4.27-12.1,3.36A4.4,4.4,0,0,1,268.22,359.22Z" transform="translate(-4.38 -4.72)"/><path class="cls-57" d="M394.78,295.88c1.74-3.63,1.19-6.58-2.54-8.6l4.08-2.32c2.69-.4,5.07-.11,6.22,2.85-.09,1.95-.18,3.91-.28,5.86Z" transform="translate(-4.38 -4.72)"/><path class="cls-58" d="M402.54,287.81,396.33,285c3.74-4,7.15-3.34,10.3.77Z" transform="translate(-4.38 -4.72)"/><path class="cls-59" d="M268.22,359.22l3.81,1.27c2,.33,3.09,1.32,2.63,3.5a4,4,0,0,1-4.37,2l-6.18-4.08Z" transform="translate(-4.38 -4.72)"/><path class="cls-60" d="M776,500.55c-3.25,2-5.63-.16-8.19-1.65q-52.09-30.34-104.21-60.66c-2-2.48-1.89-5.38-1.7-8.31l112,64.52C774.6,496.48,775.29,498.51,776,500.55Z" transform="translate(-4.38 -4.72)"/><path class="cls-61" d="M310.72,231.59l29.83-16.11c.3,4-2.05,6.94-3.94,10.06-11.88,11.88-26.35,19.66-41.53,26.33a30,30,0,0,1-3.71,1.77c-3.14-.16-5.59,2.86-8.9,1.93a14.2,14.2,0,0,1-5.87-6.09C289.83,247.07,300,238.76,310.72,231.59Z" transform="translate(-4.38 -4.72)"/><path class="cls-62" d="M296.48,159.27c-7.92,5.68-17.58,5.27-26.66,8.87-7.52,6.34,0,19.49-5.9,28.22-6.54-41.49,5.11-30.85,32.51-39.29A1.51,1.51,0,0,1,296.48,159.27Z" transform="translate(-4.38 -4.72)"/><path class="cls-63" d="M301.75,124.88l6.62.08.18,4.26c-18.36-1.69-34.43,8.26-52.59,10l2.55-4.11C273.66,134.82,287.3,128.14,301.75,124.88Z" transform="translate(-4.38 -4.72)"/><path class="cls-64" d="M296.48,159.27l-.06-2.2C301.2,150.67,303.1,158.61,296.48,159.27Z" transform="translate(-4.38 -4.72)"/><path class="cls-65" d="M277.66,107c2.26-5.64-2.22-9.38-3.93-13.9,4.29-.29,8.51-.12,12.46,1.85C291.63,99.37,283,109.6,277.66,107Z" transform="translate(-4.38 -4.72)"/><path class="cls-5" d="M286.21,103c0-2.68,0-5.37,0-8l8-8C293.1,93.09,298.57,102.5,286.21,103Z" transform="translate(-4.38 -4.72)"/><path class="cls-66" d="M342.6,271.84C330,281,296.69,303.21,294.13,298.08c-5.33-7.75,5-13.05,6.2-20.58.8-2,1.6-3.95,2.39-5.92,1.43-1.15,1.85-3.07,3.23-4.26,5.81-2.54,10.1-8.59,17.45-7.54a6.06,6.06,0,0,1,2.12,1.62c1.81,3.37,2.78,1.62,3.65-.68.47-5.63,3.05-11.59,8.79-14.64,2.25-1.26,4.54-2.48,5.69-5,2-3.67,2.4-9.11,8.79-7.67l3.93,6c3.84,5.41,8.49,10.53,6.44,18.05C358.31,265.4,349,266.53,342.6,271.84Z" transform="translate(-4.38 -4.72)"/><path class="cls-67" d="M292.3,249.32l44.31-23.78c.38,1.46.76,2.92,1.13,4.38,1.84,2.77-.36,4.3-1.84,6.06-5,3.22-8.29,8.73-14.33,10.52-7,2.34-11.86,9.89-20.4,8.65a7.76,7.76,0,0,0-2.78-.49A8.39,8.39,0,0,1,292.3,249.32Z" transform="translate(-4.38 -4.72)"/><path class="cls-50" d="M333.92,233.59c7.54-8.17,13-10.22,18.52-.21-3.64,2.4-3.45,7-5.79,10.13a3.34,3.34,0,0,1-2.63.88C340.09,241.32,333,241.22,333.92,233.59Z" transform="translate(-4.38 -4.72)"/><path class="cls-68" d="M618.51,398c-3.09,4.39-6.4,1.9-9.5.14-14.67-8.33-29.71-16.12-43.72-25.45-6-4-12.8-3.38-18.59-6.56,17.25-10.91,24-15.12,42.61-23.62-2.92,15.21,3.56,18.18,26.76,10.52C618.84,370.15,617.9,380.73,618.51,398Z" transform="translate(-4.38 -4.72)"/><path class="cls-27" d="M540.16,369.71c18.31,8.31,36,19.61,53.59,29.56,4.1,2.85,31.56,15.19,19,17.55-25.72-14.53-51.87-28.27-76.34-45Z" transform="translate(-4.38 -4.72)"/><path class="cls-69" d="M774,506.42l0,6c-25.4-12.51-49.69-28-74.81-41.64-11-8-39.51-18.89-37.35-28.22C699.94,462.21,736.34,485.45,774,506.42Z" transform="translate(-4.38 -4.72)"/><path class="cls-70" d="M226.37,432.08,225.59,416c-2.36-2.85-3.26-5.88-1.13-9.28a78.17,78.17,0,0,1,31.8,7.47c2.35,27.37-1.62,26.15-11.93,26.14C235.8,444.93,232.12,443.24,226.37,432.08Z" transform="translate(-4.38 -4.72)"/><path class="cls-71" d="M160,421.12q32.84-19.26,65.68-38.51,0,6.69,0,13.38c-3.65,9-13.34,9.53-20,14.31-1.55.71-3.27.91-4.83,1.55a10.22,10.22,0,0,0-3.72,2.9,13.2,13.2,0,0,1-1.6,1.9c-1.66,1.38-3,3.13-5,4.05-.88.25-1.76.46-2.66.65-7.2,3-12.6,10.51-21.74,8.72a7.15,7.15,0,0,1-2.43-1.55C162.39,426.08,159.52,424.42,160,421.12Z" transform="translate(-4.38 -4.72)"/><path class="cls-72" d="M203.8,407.89c7.07-4.35,13.87-9.2,21.85-11.9l.73,2.05c1.31,2.66,2.61,5.31.05,8l-.84,10c-8.18,2.73-14.17,10.64-23.74,10.13-1.88-3.12-.26-6.13.3-9.16C203,414,201.88,410.66,203.8,407.89Z" transform="translate(-4.38 -4.72)"/><path class="cls-73" d="M226.43,406c0-2.66,0-5.32-.05-8,14.89,14.8,32.59,1.46,29.88,16.13C245,416.31,234.82,414.4,226.43,406Z" transform="translate(-4.38 -4.72)"/><path class="cls-74" d="M226.37,432.08c5.11,4.66,10.87,7.9,18,8.23,3.09,1.73,10,1,12,3.67.25,13.45-27.05,1-30.08-3.76C226.32,437.51,226.34,434.79,226.37,432.08Z" transform="translate(-4.38 -4.72)"/><polygon class="cls-75" points="401.46 335.72 401.65 336.27 401.12 336.2 401.46 335.72"/><path class="cls-76" d="M314.4,353.06c0,4.29-7.28,7-6.9,1.14C307.57,350,314.87,347.17,314.4,353.06Z" transform="translate(-4.38 -4.72)"/><path class="cls-77" d="M366.7,324.08l-4.28,3.33c-2.2-1.39-.37-4.06-1.82-5.69,1.44-1.89,3.66-1.89,5.7-2.34A3.24,3.24,0,0,1,366.7,324.08Z" transform="translate(-4.38 -4.72)"/><path class="cls-78" d="M366.7,324.08c-.13-1.57-.27-3.13-.4-4.7C369.45,312.23,373.19,323,366.7,324.08Z" transform="translate(-4.38 -4.72)"/><path class="cls-79" d="M319.64,350.84c-.7-1.78-1.57-3.25,1.17-4.41C322,348.15,322.38,349,319.64,350.84Z" transform="translate(-4.38 -4.72)"/><path class="cls-80" d="M360.6,321.72c1.65,1.56,2,3.55,1.82,5.69C357.9,326.76,359.72,324.09,360.6,321.72Z" transform="translate(-4.38 -4.72)"/><path class="cls-81" d="M529.42,229.67c-.75-.09-1.51-.16-2.27-.24,2.55-6.31,7.49-9.11,14.19-9.33C538.66,224.84,533.37,226.45,529.42,229.67Z" transform="translate(-4.38 -4.72)"/><path class="cls-82" d="M160,421.12l5.52,4.51c-1.14,2.09-2.94,2.67-5.17,2.25a4.23,4.23,0,0,1-2.31-1.89l-2.2-2.05Z" transform="translate(-4.38 -4.72)"/><path class="cls-83" d="M166.33,428.33c7.47-3.14,13.47-9.44,22-10.26,1.89,1.79,3,4.2,4.79,6.05,1,.76,2,1.37,3,2.1a20.67,20.67,0,0,1,1.5,1.86c-7.64,11.14-20.05,14.79-31.43,20.06C161.42,441.5,161.25,434.9,166.33,428.33Z" transform="translate(-4.38 -4.72)"/><path class="cls-84" d="M166.33,428.33q-.08,9.9-.14,19.81c-2.24,2.84-4.56,5.38-8.42,2.33,2.24-7.86-.76-16.17,2-24l5.74-.84C165.79,426.53,166.06,427.43,166.33,428.33Z" transform="translate(-4.38 -4.72)"/><path class="cls-85" d="M159.79,426.48c1.84,8.21,4,16.44-2,24a5.36,5.36,0,0,1-1.67-.71c.61-7.93-2.07-16.12,2-23.77A7,7,0,0,1,159.79,426.48Z" transform="translate(-4.38 -4.72)"/><path class="cls-86" d="M197.62,428.08l-.61.08c-2.21,1.59-3.41,0-4.65-1.48-2.05-4.55-.44-8.6,1.7-12.59.07-.67.13-1.35.2-2A2.54,2.54,0,0,1,197,412c3.36,3.93,1.89,8.46,1.61,12.84l-.27,1.47C198.09,426.87,197.85,427.47,197.62,428.08Z" transform="translate(-4.38 -4.72)"/><path class="cls-87" d="M205.64,417.93l-3.78,8.19-3.51.16-.79-.21c-.65-1.42.34-3.63,1.21-6.09.51-1.72.93-3.48,2.71-4.43C203.74,414.81,204.9,416,205.64,417.93Z" transform="translate(-4.38 -4.72)"/><path class="cls-88" d="M300.33,277.5c2.43,3.18,6.72,6.1.11,9.69-4,2.19-4.2,7.24-6.31,10.89-9.42-1.85-10.8-8.4-9.61-16.46l8-1.71c1.42,1.09,2.67,1.14,3.63-.58Z" transform="translate(-4.38 -4.72)"/><path class="cls-89" d="M301.14,253.78c7.25-2,12.58-7.46,19.28-10.45,5.63.73,3.71,4,2.41,7.1-6.23,4.32-11.18,11.52-20.42,9.18l-2.05-3.92Q298.26,253.74,301.14,253.78Z" transform="translate(-4.38 -4.72)"/><path class="cls-90" d="M302.41,259.61l18.12-10c2-.56,2.76.65,3.32,2.2-2.79,9.29-10.69,11.43-18.72,13.39a7.09,7.09,0,0,1-2.58-1.67C302.5,262.21,302.46,260.91,302.41,259.61Z" transform="translate(-4.38 -4.72)"/><path class="cls-91" d="M302.55,263.51l1.89.15c7.65,2.83,19.06-14.58,20-2.25l-18,8.33c-1.15,1.1-2.35.91-3.57.14Z" transform="translate(-4.38 -4.72)"/><path class="cls-92" d="M301.14,253.78l-.78,1.91c-6,7.67-11.93,0-17.89-.13l7.81-4c2.84.09,5.82-.45,8.12,1.92Z" transform="translate(-4.38 -4.72)"/><path class="cls-93" d="M296.11,279.33c2.8,3.64-2.88,4.82-3.63.58Z" transform="translate(-4.38 -4.72)"/><path class="cls-94" d="M302.79,269.88l3.57-.14c2.55,5.22-1.15,4.11-3.64,1.84A4.63,4.63,0,0,1,302.79,269.88Z" transform="translate(-4.38 -4.72)"/><path class="cls-95" d="M342.6,271.84c5.54-6.49,13.77-9.16,20.21-14.37C360.3,268.2,350.18,268.23,342.6,271.84Z" transform="translate(-4.38 -4.72)"/><path class="cls-96" d="M234.45,366.21c8.63,11.3,19.47,5,29.67,3.73C260.91,386.36,230.83,382.59,234.45,366.21Z" transform="translate(-4.38 -4.72)"/><path class="cls-97" d="M244.27,367.84a7.85,7.85,0,0,1,9.93-.06Z" transform="translate(-4.38 -4.72)"/><path class="cls-98" d="M293.79,352.39l2.66-2.25c.75,1.27,1.49,2.55,2.23,3.82.27,5.65-3.29,9.26-8.08,12.22L286.26,368c-1.71.63-2.47-.31-3.08-1.51-.68-4.59,4.71-5.37,6.55-8.39a18.67,18.67,0,0,0,1.93-2.92A13.29,13.29,0,0,1,293.79,352.39Z" transform="translate(-4.38 -4.72)"/><path class="cls-99" d="M274,364c-.65-1.16-1.3-2.33-2-3.49l10.48-4.39a3.2,3.2,0,0,1,2.64,3.13c-2.5,4-5.51,6.85-10.71,4.65Z" transform="translate(-4.38 -4.72)"/><path class="cls-100" d="M284.62,358l-2.12-2,9.94-6a12.57,12.57,0,0,1,1.62.09c0,1,0,2.08,0,3.12C291.78,356.52,290.3,361.44,284.62,358Z" transform="translate(-4.38 -4.72)"/><path class="cls-101" d="M298.4,253.46c-2.87.07-5.74.1-8.12-1.92l2-2.22C295.22,249.39,297.77,250,298.4,253.46Z" transform="translate(-4.38 -4.72)"/><path class="cls-102" d="M322.58,251.45l-2.05-1.86c.87-2.1,1.86-4.21-.11-6.26,5.3-2.13,6.25-10.31,13.5-9.74,3.1,3.63,9.4,3.7,10.56,9.49-.09,3-.78,5.68-4.34,6.35l-7.51,6.29C327.08,259.49,324.45,256.37,322.58,251.45Z" transform="translate(-4.38 -4.72)"/><path class="cls-103" d="M322.58,251.45l10.05,4.26a6.79,6.79,0,0,1-.12,5.81c-2.62,3.17-5.31,2.62-8,.16-5.77-7.85-12.36,8.53-20,2C310.84,260.11,317.88,257.52,322.58,251.45Z" transform="translate(-4.38 -4.72)"/><path class="cls-104" d="M324.47,261.68c2.66-1.38,5.35-.51,8-.16.51,1.65.58,3.35-.75,4.58-3.25,3-6.95,9-11,5.9C316,268.36,323.19,265.27,324.47,261.68Z" transform="translate(-4.38 -4.72)"/><path class="cls-105" d="M340.14,249.43q2.17-3.17,4.33-6.34l2.18.42C345.31,246.4,346.06,251.57,340.14,249.43Z" transform="translate(-4.38 -4.72)"/><path class="cls-106" d="M205.64,417.93l-3.18-1.9a4.26,4.26,0,0,1-3.13-2.4c-.6-1.66-2-3.17-1-5.14l5.5-.6A11.51,11.51,0,0,1,205.64,417.93Z" transform="translate(-4.38 -4.72)"/><path class="cls-107" d="M192.11,426.08c-.62-2.81.06-5.92-2-8.39l3.91-3.6-.12,12.37A1.34,1.34,0,0,1,192.11,426.08Z" transform="translate(-4.38 -4.72)"/><path class="cls-106" d="M198.3,408.49l3.76,3.75a12.28,12.28,0,0,1-1.75,1.39,4.63,4.63,0,0,1-2.19.06,7,7,0,0,0-4-1.22C188.11,413.28,196.87,408.38,198.3,408.49Z" transform="translate(-4.38 -4.72)"/><path class="cls-108" d="M215.23,405.26c4.68,1.1,2.13,8-2,8.61C208.11,413.84,211.1,405.66,215.23,405.26Z" transform="translate(-4.38 -4.72)"/><path class="cls-109" d="M284.62,358l9.48-4.79c-.12,1.49-.23,3-.34,4.47-3.83,3.92-9.25,5.14-13.68,8l-1.82,1.89c-3,.54-4.22-.81-3.83-3.76C278.46,363,281.47,360.42,284.62,358Z" transform="translate(-4.38 -4.72)"/><path class="cls-110" d="M275.24,368.51c5-5.63,11.71-8.27,18.52-10.79-2.16,6-9.61,6.14-12.65,11.19Z" transform="translate(-4.38 -4.72)"/><path class="cls-111" d="M196.31,412.4a4.94,4.94,0,0,1,1.79-.24c3,3.93,2.06,7.91.14,11.91-.23.66-.45,1.33-.68,2C195.24,421.69,196.22,417,196.31,412.4Z" transform="translate(-4.38 -4.72)"/><path class="cls-112" d="M198.24,424.07q-.06-6-.14-11.91l2-.32c1.66,3.42,1.27,6.89.2,10.37Z" transform="translate(-4.38 -4.72)"/><path class="cls-113" d="M200.32,422.21c-.06-3.46-.13-6.91-.2-10.37l1.94.4c.13,1.26.26,2.52.4,3.78C202.11,418.21,202.26,420.57,200.32,422.21Z" transform="translate(-4.38 -4.72)"/><path class="cls-114" d="M242.39,760.36" transform="translate(-4.38 -4.72)"/><path class="cls-115" d="M641.22,313.27" transform="translate(-4.38 -4.72)"/><path class="cls-116" d="M661.66,514.69" transform="translate(-4.38 -4.72)"/><path class="cls-116" d="M640.21,528.77" transform="translate(-4.38 -4.72)"/><path class="cls-116" d="M200.47,742.86" transform="translate(-4.38 -4.72)"/><path class="cls-20" d="M237.7,534.47" transform="translate(-4.38 -4.72)"/><path class="cls-20" d="M199.49,540.5" transform="translate(-4.38 -4.72)"/><path class="cls-20" d="M173.35,527.74" transform="translate(-4.38 -4.72)"/><path class="cls-117" d="M46,663.83l-6.7-2" transform="translate(-4.38 -4.72)"/><path class="cls-22" d="M84.2,664.5" transform="translate(-4.38 -4.72)"/><path class="cls-118" d="M476.32,518.38" transform="translate(-4.38 -4.72)"/><path class="cls-21" d="M638.29,527.27l.92.49h1.34v-1.14Z" transform="translate(-4.38 -4.72)"/><polygon class="cls-25" points="63.29 642.52 63.07 652.03 42.29 664.48 41.62 650.65 63.29 642.52"/><polygon class="cls-2" points="219.25 523.72 219.92 507.63 200.48 507.63 202.57 516.08 219.25 523.72"/><polygon class="cls-2" points="18.83 410.44 19.5 397.7 26.87 400.38 24.86 412.45 18.83 410.44"/><path class="cls-14" d="M557.43,231.5" transform="translate(-4.38 -4.72)"/><path class="cls-44" d="M557.43,231.5l2.68-1.34c-7.26-4.14-17.48-10.06-24.8-14.08l-2.68-1.34L525,218.5l5,1.05,4,.55h4l1.27.36,1.41-.36h.67l-1,1.47,6.1,4.09,1.59-.2h3.35v2l-.4.56,5.83,3.7.43.23Z" transform="translate(-4.38 -4.72)"/><polygon class="cls-38" points="551.81 244.75 555.73 240.85 555.73 225.44 553.05 226.78 551.81 244.75"/><path class="cls-83" d="M166.65,448l-3.86,3.42L225.64,417l-21.45,6.85-5.37,4.69-5.36,3.35Z" transform="translate(-4.38 -4.72)"/><polygon class="cls-83" points="220.2 409.84 221.26 410.68 221.26 412.45 214.2 414.56 215.9 411.78 220.2 409.84"/><polygon class="cls-83" points="160.93 421.16 221.26 387.76 221.26 393.01 201.15 402.39 199.81 403.73 199.04 403.25 197.48 403.38 195.3 403.62 194.45 403.73 193.59 403.91 188.41 406.42 186.4 407.76 185.06 409.77 184.39 411.78 183.96 413.51 170.32 421.16 162.94 424.51 161.94 424.51 160.93 421.16"/><path class="cls-83" d="M402.59,287.8,297.36,350.29l.4,5.21,104.83-61.67Z" transform="translate(-4.38 -4.72)"/><path class="cls-83" d="M272.62,390.77,403.26,312.6q-.33-3-.67-6l-130.42,76Z" transform="translate(-4.38 -4.72)"/><polygon class="cls-71" points="288.29 340.06 393.41 277.72 399.56 282.51 288.29 340.06"/><path class="cls-87" d="M192.11,426.08a2.69,2.69,0,0,0,1.83.38,39.82,39.82,0,0,0,9.58-7.28c1.06,6.05-7.42,15.06-13.72,9.27Z" transform="translate(-4.38 -4.72)"/><path class="cls-87" d="M189.61,428.45c-2.66-6.8-2.71-6.76-1.18-10.58a10.07,10.07,0,0,0,.77-2.67c0-.28,0-.67,0-.67a6.42,6.42,0,0,1,2.33-2.67c.13,0,2.33-.25,3.11.67h0c.4,1.57-1,2.07-3.11,4a38.43,38.43,0,0,0,.78,9.35C192.81,426.52,190.56,428.89,189.61,428.45Z" transform="translate(-4.38 -4.72)"/><path class="cls-87" d="M200.84,409.79" transform="translate(-4.38 -4.72)"/><line class="cls-87" x1="194.45" y1="406.42" x2="191.76" y2="407.76"/><polygon class="cls-87" points="187.25 424.97 185.27 423.73 185.73 423.17 187.25 424.97"/><polygon class="cls-87" points="184.82 409.86 183.15 415.49 185.06 415.8 184.82 409.86"/><path class="cls-106" d="M192.73,411.21l7.4-.19,0,.75L196.3,413l-1.51.87c0-.53,0-.79-.76-1.63l-.83-.2-.42,0s-1.12,0-1.38,0Z" transform="translate(-4.38 -4.72)"/><polygon class="cls-106" points="190.42 409.1 190.05 409.37 190.4 408.8 190.42 409.1"/><polygon class="cls-98" points="269.36 371.23 272.2 371.56 270.86 368.88 269.36 371.23"/><path class="cls-98" d="M269.88,365.64l2.88-2.1,1.12.25a5.56,5.56,0,0,1,3.31,3.78,5.79,5.79,0,0,1-.95,4.14L274.57,376l-2.86-.13Z" transform="translate(-4.38 -4.72)"/><polygon class="cls-98" points="272.56 362.56 275.1 362.56 280 361.51 283.6 361.83 282.75 364.74 270.86 366.2 272.56 362.56"/><path class="cls-98" d="M276.51,376.28c12.54-2.34,28.4-23.15,20.16-25.34C292.32,375.66,267.39,366,276.51,376.28Z" transform="translate(-4.38 -4.72)"/><path class="cls-119" d="M292.26,350.62l-3.64-3a5.68,5.68,0,0,1,4.67-3.34l3.11,3.57a2.64,2.64,0,0,1-1.55,3.6A3.58,3.58,0,0,1,292.26,350.62Z" transform="translate(-4.38 -4.72)"/><polygon class="cls-119" points="292.98 345.42 292.2 343.7 288.8 346.47 289.72 348.01 293.06 345.52 292.98 345.42"/><polygon class="cls-98" points="268.18 358.82 269.06 358.28 270.28 359.27 269.52 360.84 268.18 358.82"/><path class="cls-83" d="M405.27,280.43" transform="translate(-4.38 -4.72)"/><path class="cls-83" d="M405.27,313.94" transform="translate(-4.38 -4.72)"/><polygon class="cls-83" points="399.56 282.41 398.88 307.88 394.93 285.04 399.56 282.41"/><path class="cls-120" d="M210.26,534.47q0-8.36,0-16.7,227.87-130.9,456.34-261.32.08,9.27.16,18.54c-106.8,60.44-213.91,120.68-320.21,182.23C300.77,482.76,257.23,511.35,210.26,534.47Z" transform="translate(-4.38 -4.72)"/><path class="cls-2" d="M210.22,534.47" transform="translate(-4.38 -4.72)"/><line class="cls-2" x1="18.16" y1="395.69" x2="18.16" y2="405.07"/><path class="cls-121" d="M43.25,386.53" transform="translate(-4.38 -4.72)"/><path class="cls-121" d="M37.58,389.74" transform="translate(-4.38 -4.72)"/><polygon class="cls-3" points="668.38 371.48 657.18 364.99 657.67 372.86 664.26 374.06 668.38 371.48"/><path class="cls-68" d="M607.47,335.77" transform="translate(-4.38 -4.72)"/><polygon class="cls-68" points="611.66 338.7 596.45 331.43 575.36 342.73 593.51 364.51 612.64 354.05 611.66 338.7"/><path class="cls-21" d="M638.91,527.59l-21-10.83-2.45-187.92,0-4.19,27-18.33-1.74,220.25A1.15,1.15,0,0,1,638.91,527.59Z" transform="translate(-4.38 -4.72)"/><path class="cls-25" d="M242.06,753.7V550.27l373-223.21,25.14-14,.33,213.78L661,513.74s2-210.47,0-237.28L223.29,527.81l-2.63,235.08" transform="translate(-4.38 -4.72)"/><polygon class="cls-20" points="42.05 664.62 24.85 655.06 21.57 420.92 40.47 432.08 42.05 662.71 42.05 664.62"/><polygon class="cls-20" points="47.48 455.54 183.05 529.05 48.74 451.48 47.48 455.54"/><path class="cls-25" d="M210.22,534.47V517L5.52,404.59H4.38V420Z" transform="translate(-4.38 -4.72)"/><polygon class="cls-2" points="48.31 372.3 0.3 399.94 39.97 420.28 32.6 402.31 28.67 394.13 31.54 387.44 48.31 372.3"/><path class="cls-122" d="M449.14,307.41c-.64-1.34-1.3-2.73-2-4.2A8.57,8.57,0,0,0,449.14,307.41Z" transform="translate(-4.38 -4.72)"/><path class="cls-122" d="M615.56,264.05a18,18,0,0,1,7.31-.75l1.8-1.12c-14.06-19.71-14.78-10.6-31.64-6.59-47.35,15.63-93.84,30.84-141.06,46.32-.42,5.49-1.67,6.49-2.83,5.5,13,21.22-11.1,12.1.86,31.71,1.52,3,3.83,6.17,4.35,9.81.36,3.72-2.62,5.4-6.7,8.6-5.21,4.58-6.35,10.65-3.59,17.28l4.77-3c.58-7.25,11.64-10.14,17.48-10.9l5-3.11a22.74,22.74,0,0,1,21.39-13.34l4.82-3c3.74-9.48,13.74-14.84,24.32-15.17l3-1.89c1.59-10.5,10.48-15,19.87-12.39l3-1.88c2.46-6.75,10.11-11.41,17.7-11l2.44-1.52c1.59-6.94,7.55-11.66,15.19-9.47l2.32-1.45c2-9.67,11.39-12.66,20.43-12.74l3.33-2.07A9.21,9.21,0,0,1,615.56,264.05Z" transform="translate(-4.38 -4.72)"/><path class="cls-36" d="M444.25,373c-4.5,4.84-12.55,5.68-19.35,8.77-10.12,3.91-16,9.85-23.74,16.79l-1.07-.38c3.22-11.48,4.18-16.51-4.59-25.9-5-5.76-7-12.93-11.44-19.73-4.76-6.71-15.71-2.14-23.19-7.17,20.71-14.72,23.65.81,40.44-20.94,3.77-3.63,10.55-.83,15.38-3.57a16,16,0,0,0,6-5c6.09-9.58,18.66-9.21,28.9-13.68,1.93,4.55,4.95,9.5,6.17,14-3.49,6.71-9.58,10.88-7,17.91,1.68,6.27,5.12,10.33,7.63,16.23,1.91,4.94-4.54,6.31-7.41,9.93-3.88,3.77-3.94,8.1-6.73,12.74m-46.8-36.72c-3.15,8.68,8.31,15.51,10.73,23.52,2.41,4.55,2.65,8.41,4.72,13.09,5.12,9,20.77,6.78,22.15-3.12-1.86-12.08-10.86-23.28-15.95-34.67C415.24,327.34,400.3,327.35,397.45,336.3Zm48.66-9.12c2.38-6.26-7.84-10.46-11.2-4.95C430.86,328.88,443.4,334,446.11,327.18Zm2.09,15.7c-7.67-2.32-11,7.16-3.87,10.18C452.18,355.59,455.72,345.79,448.2,342.88Z" transform="translate(-4.38 -4.72)"/><path class="cls-36" d="M397.45,336.3c2.65-8.69,17.49-9.2,21.65-1.18,5.08,11.16,13.83,22.51,15.95,34.67-.87,9.09-14.37,11.45-20.36,5.36-4.2-4.32-3.67-11-7-16.43C404.89,350.71,394.51,345.15,397.45,336.3Zm14.69-2c-21.94-2.22-2.95,15.91.1,23.19,3.93,7.39,4,21.82,15.89,15.25,5.91-5.29-2.36-12.58-4.26-18.61C419.81,347.43,418.12,339.68,412.14,334.31Z" transform="translate(-4.38 -4.72)"/><path class="cls-46" d="M446.11,327.19c-2.49,6.28-13.76,2.52-11.6-4.12C437.22,316.39,448.42,320.5,446.11,327.19Z" transform="translate(-4.38 -4.72)"/><path class="cls-46" d="M448.2,342.88c7.3,2.81,4.22,11.74-2.88,10.47C436.64,351.33,440.4,340.34,448.2,342.88Z" transform="translate(-4.38 -4.72)"/><path class="cls-123" d="M497.63,288.94c5.71,15.42,17.11,16.7,22.86,30.34-12.6,11.79-25-16-34.41-21.6C489.66,293.42,493.46,290.31,497.63,288.94Z" transform="translate(-4.38 -4.72)"/><path class="cls-124" d="M566,292.25c-3.72.26-6.22,7.88-10.65,4.37-5.16-4.09-10.15-8.48-13.82-15.91l9.93-7.72,6.78-2.93C566.32,280.66,577.32,281.55,566,292.25Z" transform="translate(-4.38 -4.72)"/><polygon class="cls-124" points="536.94 276.58 535.23 269.39 551.44 264.15 554.58 266.09 536.94 276.58"/><path class="cls-124" d="M570.08,282.54" transform="translate(-4.38 -4.72)"/><polygon class="cls-124" points="536.86 276.25 539.06 279.44 552.99 294.13 570.49 282.86 563.71 275.26 536.86 276.25"/><path class="cls-123" d="M486.08,296.59l-2.32-3.47,14-4.74-10.05,10.29Z" transform="translate(-4.38 -4.72)"/><polygon class="cls-123" points="507.91 317.67 512.04 320.51 518.57 316.31 515.83 313.45 506.56 311.94 507.91 317.67"/><polygon class="cls-69" points="507.51 570.95 507.51 590.07 518.98 601.54 517.98 581.38 507.51 570.95"/><path class="cls-23" d="M424,558.31c136.42-72,133.68-84.23,156.45-56.7-18.77,20.16-48.7,28.2-72.66,39.75-25.05,9.49-43.22,21.93-68.47,33.8C430.25,565.4,431.55,569.06,424,558.31Z" transform="translate(-4.38 -4.72)"/><path class="cls-24" d="M440,599.46c-2.65-10.48-2.66-16.77-2.85-26.25,87-39.77,124.73-67.62,143.29-71.2-.23,29.22,14.44,16.88-17.53,33.2-38,19.41-75.22,40.22-112.74,60.49" transform="translate(-4.38 -4.72)"/><polyline class="cls-69" points="435.6 594.29 434.2 567.82 419.58 554.12 419.58 579.23 435.6 594.29"/></svg>